<svg id="Capa_1" enable-background="new 0 0 512 512" height="512" viewBox="0 0 512 512" width="512" xmlns="http://www.w3.org/2000/svg"><g><path d="m353.214 42.049c-25.481-27.116-60.005-42.049-97.214-42.049s-71.733 14.933-97.214 42.049-38.241 62.501-35.93 99.639l16.21 260.43c3.834 61.616 55.199 109.882 116.934 109.882s113.1-48.266 116.934-109.882l16.21-260.43c2.311-37.138-10.449-72.523-35.93-99.639zm5.988 97.776-16.21 260.43c-2.853 45.838-41.064 81.745-86.992 81.745s-84.139-35.907-86.992-81.746l-16.21-260.43c-1.791-28.786 8.1-56.214 27.851-77.232 19.749-21.017 46.51-32.592 75.351-32.592s55.602 11.575 75.352 32.593c19.751 21.017 29.641 48.446 27.85 77.232z"/><path d="m271 120h-30v30h-30v30h30v50.001h30v-50.001h30v-30h-30z"/></g></svg>